PathFileType	4	(X/Y/Z)	 s05c0202.trc
DataRate	CameraRate	NumFrames	NumMarkers	Units	OrigDataRate	OrigDataStartFrame	OrigNumFrames
200	200	5	49	mm	200	1001	2000
Frame#	Time	racr			lacr			c7			jug			rlel			rdr			llel			ldr			s2			lic			ric			lasi			rasi			rpsi			lpsi			rgt			lgt			rth1			rth2			rth3			rth4			rlfc			rsh1			rsh2			rsh3			rsh4			rlmal			rmmal			rcal			rtoe			rmt5			lth1			lth2			lth4			lth3			llfc			lmfc			lsh1			lsh2			lsh3			lsh4			llmal			lmmal			lcal			ltoe			lmt5			SBIKE			LBIKE			RBIKE			
		X1	Y1	Z1	X2	Y2	Z2	X3	Y3	Z3	X4	Y4	Z4	X5	Y5	Z5	X6	Y6	Z6	X7	Y7	Z7	X8	Y8	Z8	X9	Y9	Z9	X10	Y10	Z10	X11	Y11	Z11	X12	Y12	Z12	X13	Y13	Z13	X14	Y14	Z14	X15	Y15	Z15	X16	Y16	Z16	X17	Y17	Z17	X18	Y18	Z18	X19	Y19	Z19	X20	Y20	Z20	X21	Y21	Z21	X22	Y22	Z22	X23	Y23	Z23	X24	Y24	Z24	X25	Y25	Z25	X26	Y26	Z26	X27	Y27	Z27	X28	Y28	Z28	X29	Y29	Z29	X30	Y30	Z30	X31	Y31	Z31	X32	Y32	Z32	X33	Y33	Z33	X34	Y34	Z34	X35	Y35	Z35	X36	Y36	Z36	X37	Y37	Z37	X38	Y38	Z38	X39	Y39	Z39	X40	Y40	Z40	X41	Y41	Z41	X42	Y42	Z42	X43	Y43	Z43	X44	Y44	Z44	X45	Y45	Z45	X46	Y46	Z46	X47	Y47	Z47	X48	Y48	Z48	X49	Y49	Z49	
1001	5.0050	516.721900	1231.139974	-99.100831	534.977859	1231.352119	-342.685289	501.545905	1316.123987	-225.060355	434.252507	1168.481612	-228.631521	466.405354	1023.324214	86.415055	661.103414	962.398282	-37.165991	464.830196	1073.987470	-593.374373	667.386534	980.081449	-476.838807	-88.277474	1205.954104	-274.145161	69.085151	1192.562053	-413.234160	47.920914	1215.785570	-132.096589	98.438574	1132.035530	-370.958898	90.631581	1155.564853	-156.806829	-50.070997	1252.713302	-237.989454	-42.340382	1249.264647	-322.979014	15.817133	1115.508412	-97.807789	-20.784066	1096.146465	-437.078874	120.262372	1069.005233	-95.620484	208.833242	1058.915801	-101.981475	278.473365	1005.368841	-106.326433	220.242832	1090.447543	-118.553342	410.728521	936.106812	-140.377248	334.195376	860.975592	-115.070698	308.053489	776.197309	-118.724451	246.423135	717.165582	-117.475263	335.133051	760.099122	-141.164706	179.717930	591.590185	-117.059088	200.138987	614.122120	-196.805225	104.523258	569.731142	-162.124408	388.432713	489.743768	-146.520299	283.069778	488.928067	-84.350407	49.864379	967.041589	-454.984110	112.839730	908.766795	-453.647690	144.180059	926.340035	-443.044331	137.961423	821.675434	-451.593177	203.186981	690.276450	-421.777009	190.133293	679.819552	-313.024820	139.561953	580.876034	-448.942530	131.970750	494.619795	-437.800500	80.325485	421.907996	-435.806818	161.157306	486.046840	-413.991216	50.285722	311.129571	-428.228153	81.054866	326.490828	-355.170272	-17.041341	292.474704	-385.894369	243.648061	155.001953	-396.705754	134.080693	175.737233	-458.299495	-214.844918	913.686559	-268.900139	-43.614859	85.084182	-474.933043	-51.930563	80.262985	-77.526205	
1002	5.0100	515.888433	1230.705518	-98.164067	534.510681	1229.770434	-341.301770	501.058204	1315.426821	-224.176275	433.585351	1167.629126	-227.276742	464.578720	1023.179254	86.921367	660.466008	962.247431	-37.702538	465.596245	1074.333978	-593.498342	667.603800	980.115230	-476.526089	-88.898570	1206.710767	-274.342722	68.612258	1192.674231	-413.503131	47.077119	1216.868935	-132.492663	97.742968	1132.080400	-371.031871	89.865325	1156.069590	-156.893132	-50.197708	1253.576993	-238.715555	-42.544958	1249.999713	-323.514205	15.103205	1115.649638	-98.451288	-20.681174	1096.753795	-437.590942	119.164393	1067.779996	-95.665312	207.709775	1055.928368	-102.104976	276.319890	1001.601196	-106.084658	219.615397	1087.388064	-118.611862	407.650891	930.248025	-140.482608	331.688299	853.005102	-114.886381	306.979615	767.596590	-117.890590	246.590475	707.432460	-116.592553	334.417253	752.257036	-140.350591	183.024544	580.661824	-116.231129	202.560491	603.966331	-196.231778	108.582718	555.497400	-161.129308	396.017736	488.998743	-145.868083	290.882571	482.868331	-83.453302	52.809618	968.803360	-454.805976	117.377031	912.272499	-452.355249	147.918413	930.608985	-440.906220	144.748180	825.866736	-450.254090	211.599018	695.011159	-421.300623	197.832751	684.253014	-312.685561	145.339741	586.937819	-448.708817	135.071310	500.960503	-437.494852	81.355436	429.765104	-435.924742	163.881740	491.490699	-413.469334	47.756471	320.059841	-428.409904	79.073291	334.193347	-355.176186	-20.275386	304.022821	-385.894906	234.690534	156.077108	-396.718909	126.088554	181.306410	-458.184269	-214.831882	913.692314	-268.691565	-43.626843	85.138968	-474.893853	-51.915275	80.236400	-77.499447	
1003	5.0150	514.430690	1230.867421	-96.319534	534.273530	1228.736063	-341.033549	500.567009	1314.860609	-223.480248	432.950606	1166.839834	-225.964894	464.865768	1022.137887	86.834279	659.847095	961.851987	-38.419000	466.482854	1074.744060	-593.548447	667.831216	980.139044	-476.247537	-89.455960	1207.360795	-275.035452	68.299137	1192.650297	-413.839919	46.330663	1217.514584	-132.795224	97.237351	1131.997550	-371.144531	89.020978	1156.349071	-156.639749	-50.391070	1253.840633	-239.164161	-42.542412	1250.493757	-324.226854	14.193542	1115.398043	-99.034945	-20.392156	1097.239488	-438.151536	118.190089	1066.213474	-95.483899	206.355225	1052.678829	-101.865317	274.178552	996.491582	-105.983663	218.934913	1083.750299	-118.494016	404.037111	922.162667	-140.116160	328.921660	843.992853	-114.073531	305.787546	757.994467	-117.020502	246.746172	696.641442	-115.652668	333.364623	743.435628	-139.218863	186.454448	568.792755	-115.356500	205.046186	592.865562	-195.530820	112.934293	540.479578	-160.139501	403.128942	487.362324	-145.097101	298.513205	476.126817	-82.602308	56.138646	970.721046	-454.680114	122.453974	916.303346	-451.817033	151.989296	935.157357	-438.665948	152.014539	830.366727	-449.002652	220.222109	699.978670	-420.732568	205.638165	689.013843	-312.398798	151.581971	593.166017	-448.465103	138.700200	507.510360	-437.302867	82.930581	437.956969	-436.158817	167.016996	497.284097	-412.999296	45.751966	329.122114	-428.744102	77.544918	342.187977	-355.314452	-22.880595	315.909750	-386.070073	225.905055	157.796515	-396.878612	118.433600	187.387043	-458.078742	-214.791740	913.705248	-268.461039	-43.603881	85.272619	-474.933752	-51.914769	80.227496	-77.472515	
1004	5.0200	513.659853	1230.874253	-95.603430	533.901951	1227.569354	-340.082057	500.060838	1314.438216	-222.918009	432.356897	1166.125868	-224.699574	463.213757	1022.115566	87.014821	659.190487	961.587033	-39.110467	467.172646	1075.021264	-593.661289	668.031944	980.138783	-475.931232	-89.950264	1207.567501	-275.652185	67.998947	1192.267579	-414.094293	45.501426	1217.868279	-133.141521	96.908758	1131.703061	-371.293464	88.198396	1156.392723	-156.408150	-50.475033	1253.809757	-239.737218	-42.527944	1250.537193	-324.932875	12.891716	1114.879185	-99.738155	-19.908291	1097.508974	-438.826191	117.105918	1063.862869	-95.211573	204.929828	1048.635158	-101.576412	271.852161	990.687977	-105.912895	218.164290	1079.427597	-118.188489	400.172969	913.964729	-139.726318	325.798064	834.207833	-113.066503	304.548975	747.759826	-116.054585	246.988501	684.967583	-114.500752	332.562486	733.454168	-137.902796	190.264549	555.894466	-114.755178	207.805971	581.116954	-194.866252	117.285485	525.159296	-158.981088	409.601997	484.939930	-144.252050	305.821250	468.560324	-81.541104	59.742533	972.784314	-454.543390	127.578127	920.285628	-450.452824	156.225584	939.806832	-436.214565	159.491994	835.217399	-447.890877	229.028150	705.304607	-420.114309	213.530852	693.756731	-311.934775	158.174107	599.551533	-448.225575	142.710282	514.485272	-437.104318	84.906240	446.481901	-436.485961	170.427880	503.474268	-412.530491	44.132981	338.640484	-429.207735	76.279278	350.704669	-355.442577	-25.010625	328.070120	-386.311611	217.354210	160.023027	-396.906578	111.091722	193.958838	-458.049278	-214.724902	913.745721	-268.270856	-43.596615	85.214491	-474.834883	-51.921367	80.213965	-77.461147	
1005	5.0250	512.989863	1231.088971	-94.869894	533.637882	1226.775977	-339.426348	499.565274	1314.164629	-222.380954	431.812853	1165.499359	-223.484380	462.281685	1022.052392	87.102240	658.482361	961.269503	-39.846560	467.781772	1075.269630	-593.756167	668.170125	980.119488	-475.611318	-90.482238	1207.502502	-276.624666	67.767097	1191.646597	-414.227827	44.705621	1217.939216	-133.408356	96.617766	1131.209648	-371.247806	87.376032	1156.299469	-156.110590	-50.717728	1253.701447	-240.650755	-42.522453	1250.146413	-325.636154	11.450480	1113.871187	-100.294556	-19.251657	1097.520276	-439.574422	115.875410	1060.757888	-94.776716	203.385902	1043.909039	-101.115353	269.322735	984.368342	-105.623668	217.302252	1074.386860	-117.576423	396.023001	905.257641	-139.061000	322.459537	823.684599	-111.858715	303.324202	736.608959	-114.909408	247.359183	672.471836	-113.450534	331.987608	723.174747	-137.044319	194.194601	542.759391	-113.836827	210.932996	568.777745	-194.137375	121.843272	509.699316	-157.819026	416.377330	480.860263	-143.537063	313.008628	460.326280	-80.759713	63.593985	975.044152	-454.332683	132.815842	924.406284	-448.840330	160.559608	944.577807	-433.774122	167.018808	840.316914	-446.603377	237.856415	710.575724	-419.391437	221.311215	698.497178	-311.050245	164.989089	606.144866	-448.004570	146.978817	521.385677	-436.836823	87.288568	455.180225	-436.812420	174.166534	509.707143	-411.984607	42.895260	348.355433	-429.737448	75.289078	359.476603	-355.668087	-26.633616	340.518087	-386.618335	208.991059	163.039288	-396.938013	104.139981	201.053071	-457.946372	-214.646949	913.768317	-268.110115	-43.581351	85.340410	-474.910528	-51.891997	80.194084	-77.451379	
